<svg width="986" height="95" viewBox="0 0 986 95" fill="none" xmlns="http://www.w3.org/2000/svg">
<path d="M122 48.1888L103.895 70L76.3925 70L92.3551 48.1888L76.3925 25L103.895 25L122 48.1888Z" fill="#660066"/>
<path d="M84.9438 48.1888L66.8384 70L39.3364 70L52.629 48.1888L39.3364 25L66.8384 25L84.9438 48.1888Z" fill="#660066"/>
<path d="M45.6074 48.1888L27.5019 70L-5.21243e-05 70L13.2926 48.1888L-4.8187e-05 25L27.5019 25L45.6074 48.1888Z" fill="#660066"/>
<path d="M173 0H258.26H789.606L850 30.2655V95H769.846H229.498L173 65.5752V0Z" fill="#660066"/>
<path d="M973.363 60.7549L850 61.1675" stroke="#660066" stroke-width="4"/>
<path d="M962 79L941.824 69L850 69" stroke="#660066" stroke-width="4"/>
<path d="M931 45L916.408 53L850 53" stroke="#660066" stroke-width="4"/>
<path d="M931 85L916.408 77L850 77" stroke="#660066" stroke-width="4"/>
<path d="M979 55C981.634 55 984 57.3302 984 60.5C984 63.6698 981.634 66 979 66C976.366 66 974 63.6698 974 60.5C974 57.3302 976.366 55 979 55Z" stroke="#660066" stroke-width="4"/>
<path d="M936.5 38C939.538 38 942 40.4624 942 43.5C942 46.5376 939.538 49 936.5 49C933.462 49 931 46.5376 931 43.5C931 40.4624 933.462 38 936.5 38Z" stroke="#660066" stroke-width="4"/>
<path d="M935 82C937.634 82 940 84.3302 940 87.5C940 90.6698 937.634 93 935 93C932.366 93 930 90.6698 930 87.5C930 84.3302 932.366 82 935 82Z" stroke="#660066" stroke-width="4"/>
<path d="M966 76C968.634 76 971 78.3302 971 81.5C971 84.6698 968.634 87 966 87C963.366 87 961 84.6698 961 81.5C961 78.3302 963.366 76 966 76Z" stroke="#660066" stroke-width="4"/>
</svg>
