<svg width="293" height="239" viewBox="0 0 293 239" fill="none" xmlns="http://www.w3.org/2000/svg">
<path d="M59.3823 185.474L33.2867 230.751L-18.9044 230.751L-45 185.474L-18.9044 140.197L33.2867 140.197L59.3823 185.474Z" fill="#660066"/>
<path d="M214.713 186.719L188.618 231.996L136.427 231.996L110.331 186.719L136.427 141.442L188.618 141.442L214.713 186.719Z" fill="#660066"/>
<path d="M137.669 52.2812L111.573 97.5581L59.3822 97.5581L33.2866 52.2812L59.3822 7.00436L111.573 7.00436L137.669 52.2812Z" fill="#660066"/>
<path d="M137.669 140.661L111.573 185.938L59.3822 185.938L33.2866 140.661L59.3822 95.3846L111.573 95.3846L137.669 140.661Z" fill="#AB1DCC"/>
<path d="M293 140.661L266.904 185.938L214.713 185.938L188.618 140.661L214.713 95.3846L266.904 95.3846L293 140.661Z" fill="#AB1DCC"/>
<path d="M214.713 95.849L188.618 141.126L136.427 141.126L110.331 95.849L136.427 50.5721L188.618 50.5721L214.713 95.849Z" fill="#D896FF"/>
<path d="M59.3823 95.849L33.2867 141.126L-18.9044 141.126L-45 95.849L-18.9044 50.5721L33.2867 50.5721L59.3823 95.849Z" fill="#D896FF"/>
<path d="M137.669 231.531L108.467 231.531L61.8675 231.531L33.2866 231.531L59.3822 186.254L111.573 186.254L137.669 231.531Z" fill="#D896FF"/>
<path d="M293 231.996L263.798 231.996L217.199 231.996L188.618 231.996L214.713 186.719L266.904 186.719L293 231.996Z" fill="#D896FF"/>
</svg>
