<svg width="43" height="47" viewBox="0 0 43 47" fill="none" xmlns="http://www.w3.org/2000/svg">
<path d="M31.7627 27.8094L21.2879 21.6016L10.6353 27.7946L21.4657 34.1062L31.7627 27.8094Z" fill="#CACACA"/>
<path d="M31.7626 27.8091L21.2729 21.6161V9.28925L31.7626 15.2084V27.8091Z" fill="#666666"/>
<path d="M21.2731 21.6162V9.2894L10.6353 15.0776V27.7945L21.2731 21.6162Z" fill="#A9A9A9"/>
<path d="M37.6294 12.4456C37.6343 10.5096 37.6412 6.60812 37.6294 6.48959L42.6964 9.21572V15.2606L37.6294 12.4456Z" fill="#A9A9A9"/>
<path d="M37.4515 30.4024L37.4219 24.5945L42.6371 27.6762L37.4515 30.4024Z" fill="#666666"/>
<path d="M26.9619 18.431L26.5767 0L33.4809 3.58545V14.6974L42.6371 20.1496V27.6761L26.9619 18.431Z" fill="white"/>
<path d="M26.7103 6.01526L26.577 0L21.5396 2.978L26.7103 6.01526Z" fill="#666666"/>
<path d="M0.115723 15.7643V9.68981L5.41982 6.75269V12.6826L0.115723 15.7643Z" fill="#A9A9A9"/>
<path d="M5.22739 30.6394L0.0566406 27.6762L5.22739 24.7871V30.6394Z" fill="#666666"/>
<path d="M16.1468 5.92637L16.1172 0L21.2731 2.978L16.1468 5.92637Z" fill="#666666"/>
<path d="M16.206 18.6681L0.0566358 27.6761L0 19.9422L9.2425 14.5196V3.9114L16.1171 0L16.206 18.6681Z" fill="white"/>
<path d="M21.3471 40.2101L16.2949 43.1732L21.2138 46.2549L26.3697 43.1732L21.3471 40.2101Z" fill="#A9A9A9"/>
<path d="M37.3335 30.6389L37.452 36.6838L32.3257 33.8095L37.3335 30.6389Z" fill="#666666"/>
<path d="M5.24219 36.8027L5.36071 30.906L10.5167 33.8247L5.24219 36.8027Z" fill="#666666"/>
<path d="M12.2946 40.8658L21.4063 35.4692L30.6384 40.8919L37.452 36.6841L21.4063 27.6761L5.24219 36.8027L12.2946 40.8658Z" fill="white"/>
</svg>
