<svg width="1440" height="629" viewBox="0 0 1440 629" fill="none" xmlns="http://www.w3.org/2000/svg">
<path d="M1014.5 309L1440 309" stroke="#660066" stroke-width="8"/>
<path d="M1014.5 318L1213 318L1295 414.5L1358 414.5" stroke="#660066" stroke-width="2"/>
<path d="M52.5 372C52.5 376.694 48.6944 380.5 44 380.5C39.3056 380.5 35.5 376.694 35.5 372C35.5 367.306 39.3056 363.5 44 363.5C48.6944 363.5 52.5 367.306 52.5 372Z" stroke="#660066" stroke-width="5"/>
<path d="M899.272 504.5C923.905 504.5 922.01 504.5 950.059 504.5C978.108 504.5 976.517 504.5 1000.85 504.5C1000.85 532.574 978.108 555.333 950.059 555.333C922.01 555.333 899.272 532.574 899.272 504.5Z" fill="#660066"/>
<path d="M954.43 572L957.969 548.875L941.734 548.875L944.856 572L954.43 572Z" fill="#660066" stroke="#660066" stroke-width="8"/>
<path d="M908.324 560.329L927.163 546.481L915.683 534.991L901.553 553.553L908.324 560.329Z" fill="#660066" stroke="#660066" stroke-width="8"/>
<path d="M889.361 526.496L912.593 523.931L908.391 508.235L886.882 517.239L889.361 526.496Z" fill="#660066" stroke="#660066" stroke-width="8"/>
<path d="M1013.75 518.021L993.374 506.568L987.661 521.779L1010.39 526.992L1013.75 518.021Z" fill="#660066" stroke="#660066" stroke-width="8"/>
<path d="M997.928 551.764L984.093 532.908L972.613 544.398L991.158 558.54L997.928 551.764Z" fill="#660066" stroke="#660066" stroke-width="8"/>
<path d="M1000.73 504.5C976.095 504.5 977.99 504.5 949.941 504.5C921.892 504.5 923.483 504.5 899.154 504.5C899.154 476.426 921.892 453.667 949.941 453.667C977.99 453.667 1000.73 476.426 1000.73 504.5Z" fill="#660066"/>
<path d="M945.57 437L942.031 460.125H958.266L955.144 437H945.57Z" fill="#660066" stroke="#660066" stroke-width="8"/>
<path d="M991.676 448.671L972.837 462.519L984.317 474.009L998.447 455.447L991.676 448.671Z" fill="#660066" stroke="#660066" stroke-width="8"/>
<path d="M1010.64 482.504L987.407 485.069L991.609 500.765L1013.12 491.761L1010.64 482.504Z" fill="#660066" stroke="#660066" stroke-width="8"/>
<path d="M886.245 490.979L906.626 502.432L912.339 487.221L889.615 482.008L886.245 490.979Z" fill="#660066" stroke="#660066" stroke-width="8"/>
<path d="M902.072 457.236L915.907 476.092L927.387 464.602L908.842 450.46L902.072 457.236Z" fill="#660066" stroke="#660066" stroke-width="8"/>
<ellipse cx="950.537" cy="506.643" rx="31.157" ry="31.0714" fill="#EFBBFF"/>
<path d="M446.272 119.5C470.905 119.5 469.01 119.5 497.059 119.5C525.108 119.5 523.517 119.5 547.846 119.5C547.846 147.574 525.108 170.333 497.059 170.333C469.01 170.333 446.272 147.574 446.272 119.5Z" fill="#660066"/>
<path d="M501.43 187L504.969 163.875L488.734 163.875L491.856 187L501.43 187Z" fill="#660066" stroke="#660066" stroke-width="8"/>
<path d="M455.324 175.329L474.163 161.481L462.683 149.991L448.553 168.553L455.324 175.329Z" fill="#660066" stroke="#660066" stroke-width="8"/>
<path d="M436.361 141.496L459.593 138.931L455.391 123.235L433.882 132.239L436.361 141.496Z" fill="#660066" stroke="#660066" stroke-width="8"/>
<path d="M560.755 133.021L540.374 121.568L534.661 136.779L557.385 141.992L560.755 133.021Z" fill="#660066" stroke="#660066" stroke-width="8"/>
<path d="M544.928 166.764L531.093 147.908L519.613 159.398L538.158 173.54L544.928 166.764Z" fill="#660066" stroke="#660066" stroke-width="8"/>
<path d="M547.728 119.5C523.095 119.5 524.99 119.5 496.941 119.5C468.892 119.5 470.483 119.5 446.154 119.5C446.154 91.4255 468.892 68.6667 496.941 68.6667C524.99 68.6667 547.728 91.4255 547.728 119.5Z" fill="#660066"/>
<path d="M492.57 52L489.031 75.125H505.266L502.144 52H492.57Z" fill="#660066" stroke="#660066" stroke-width="8"/>
<path d="M538.676 63.671L519.837 77.5185L531.317 89.009L545.447 70.4474L538.676 63.671Z" fill="#660066" stroke="#660066" stroke-width="8"/>
<path d="M557.639 97.5043L534.407 100.069L538.609 115.765L560.118 106.761L557.639 97.5043Z" fill="#660066" stroke="#660066" stroke-width="8"/>
<path d="M433.245 105.979L453.626 117.432L459.339 102.221L436.615 97.0083L433.245 105.979Z" fill="#660066" stroke="#660066" stroke-width="8"/>
<path d="M449.072 72.2361L462.907 91.0923L474.387 79.6018L455.842 65.4597L449.072 72.2361Z" fill="#660066" stroke="#660066" stroke-width="8"/>
<ellipse cx="497.537" cy="121.643" rx="31.157" ry="31.0714" fill="#EFBBFF"/>
<path d="M1013.5 291L1261.8 291L1330.26 260L1440 260" stroke="#660066" stroke-width="8"/>
<path d="M-2.71007e-06 295L271.404 295L340.786 264L429 264" stroke="#660066" stroke-width="8"/>
<path d="M424 323L177.199 323L108.738 354L-1 354" stroke="#660066" stroke-width="8"/>
<path d="M1460 326L1180.79 326L1109.41 358.999L1011 358.999" stroke="#660066" stroke-width="8"/>
<path d="M0 309L425 309" stroke="#660066" stroke-width="8"/>
<path d="M1237 287L1308 256H1329.5L1262 287H1237Z" fill="#660066"/>
<path d="M246 291L318.151 260H340L271.405 291H246Z" fill="#660066"/>
<path d="M202 327L131 358L109.5 358L177 327L202 327Z" fill="#660066"/>
<path d="M1207 330L1132.55 363L1110 363L1180.78 330L1207 330Z" fill="#660066"/>
<path d="M425 302.5H226L144 206H81" stroke="#660066" stroke-width="2"/>
<path d="M433 374H298.212L242.672 439H200" stroke="#660066" stroke-width="2"/>
<path d="M998 236L1132.79 236L1188.33 171L1231 171" stroke="#660066" stroke-width="2"/>
<path d="M52.5 235C36.7599 235 24 222.24 24 206.5C24 190.76 36.7599 178 52.5 178C68.2401 178 81 190.76 81 206.5C81 222.24 68.2401 235 52.5 235Z" stroke="#660066" stroke-width="6"/>
<circle cx="52.5" cy="206.5" r="18.5" transform="rotate(90 52.5 206.5)" stroke="#660066" stroke-width="2"/>
<circle cx="52.5" cy="206.5" r="6.5" transform="rotate(90 52.5 206.5)" fill="#660066" stroke="#660066" stroke-width="4"/>
<path d="M59 173.367C78.2084 177.077 85.6746 196.215 87.0066 205.32" stroke="#660066"/>
<path d="M56.0259 241.442C36.6311 244.005 23.4899 228.215 19.3436 220" stroke="#660066"/>
<path d="M63.0645 243.206C55.7814 246.281 47.3017 246.728 38.9374 242.365" stroke="#660066"/>
<path d="M25.1143 184.229C29.6164 177.731 36.5368 172.81 45.937 172.013" stroke="#660066"/>
<path d="M180.497 420.448C170.493 420.448 162.356 428.605 162.356 438.7C162.356 448.795 170.493 456.952 180.497 456.952C190.501 456.952 198.638 448.795 198.638 438.7C198.638 428.605 190.501 420.448 180.497 420.448Z" stroke="#660066" stroke-width="6"/>
<path d="M180.497 426.544C173.826 426.544 168.409 431.982 168.409 438.7C168.409 445.419 173.826 450.856 180.497 450.856C187.167 450.856 192.584 445.419 192.584 438.7C192.584 431.982 187.167 426.544 180.497 426.544Z" stroke="#660066" stroke-width="2"/>
<path d="M180.497 434.966C178.461 434.966 176.792 436.628 176.792 438.7C176.792 440.773 178.461 442.435 180.497 442.435C182.533 442.435 184.202 440.773 184.202 438.7C184.202 436.628 182.533 434.966 180.497 434.966Z" fill="#660066" stroke="#660066" stroke-width="4"/>
<path d="M184.859 461.054C197.751 458.551 202.762 445.639 203.656 439.496" stroke="#660066"/>
<path d="M182.863 415.126C169.847 413.397 161.027 424.05 158.244 429.592" stroke="#660066"/>
<path d="M187.587 413.936C182.699 411.862 177.008 411.56 171.395 414.503" stroke="#660066"/>
<path d="M162.117 453.725C165.139 458.11 169.783 461.429 176.092 461.967" stroke="#660066"/>
<path d="M1250.5 189.552C1260.51 189.552 1268.64 181.395 1268.64 171.3C1268.64 161.205 1260.51 153.048 1250.5 153.048C1240.5 153.048 1232.36 161.205 1232.36 171.3C1232.36 181.395 1240.5 189.552 1250.5 189.552Z" stroke="#660066" stroke-width="6"/>
<path d="M1250.5 183.456C1257.17 183.456 1262.59 178.018 1262.59 171.3C1262.59 164.581 1257.17 159.144 1250.5 159.144C1243.83 159.144 1238.42 164.581 1238.42 171.3C1238.42 178.018 1243.83 183.456 1250.5 183.456Z" stroke="#660066" stroke-width="2"/>
<path d="M1250.5 175.034C1252.54 175.034 1254.21 173.372 1254.21 171.3C1254.21 169.227 1252.54 167.565 1250.5 167.565C1248.47 167.565 1246.8 169.227 1246.8 171.3C1246.8 173.372 1248.47 175.034 1250.5 175.034Z" fill="#660066" stroke="#660066" stroke-width="4"/>
<path d="M1246.14 148.946C1233.25 151.449 1228.24 164.361 1227.34 170.504" stroke="#660066"/>
<path d="M1248.14 194.874C1261.15 196.603 1269.97 185.95 1272.76 180.408" stroke="#660066"/>
<path d="M1243.41 196.064C1248.3 198.138 1253.99 198.44 1259.61 195.497" stroke="#660066"/>
<path d="M1268.88 156.275C1265.86 151.89 1261.22 148.571 1254.91 148.033" stroke="#660066"/>
<path d="M1384.5 443C1368.76 443 1356 430.24 1356 414.5C1356 398.76 1368.76 386 1384.5 386C1400.24 386 1413 398.76 1413 414.5C1413 430.24 1400.24 443 1384.5 443Z" stroke="#660066" stroke-width="6"/>
<circle cx="1384.5" cy="414.5" r="18.5" transform="rotate(90 1384.5 414.5)" stroke="#660066" stroke-width="2"/>
<circle cx="1384.5" cy="414.5" r="6.5" transform="rotate(90 1384.5 414.5)" fill="#660066" stroke="#660066" stroke-width="4"/>
<path d="M1391 381.367C1410.21 385.077 1417.67 404.215 1419.01 413.32" stroke="#660066"/>
<path d="M1388.03 449.442C1368.63 452.005 1355.49 436.215 1351.34 428" stroke="#660066"/>
<path d="M1395.06 451.206C1387.78 454.281 1379.3 454.728 1370.94 450.365" stroke="#660066"/>
<path d="M1357.11 392.229C1361.62 385.731 1368.54 380.81 1377.94 380.013" stroke="#660066"/>
<path d="M1010 274H1230L1304 240.5H1389.5M1006 251.5H1213" stroke="#660066" stroke-width="8"/>
<path d="M425.5 338L212 338L138 371.5L52.4999 371.5M427.714 360.5L229 360.5" stroke="#660066" stroke-width="8"/>
<path d="M1211.5 251C1211.5 246.306 1215.31 242.5 1220 242.5C1224.69 242.5 1228.5 246.306 1228.5 251C1228.5 255.694 1224.69 259.5 1220 259.5C1215.31 259.5 1211.5 255.694 1211.5 251Z" stroke="#660066" stroke-width="5"/>
<path d="M230.5 361C230.5 365.694 226.694 369.5 222 369.5C217.306 369.5 213.5 365.694 213.5 361C213.5 356.306 217.306 352.5 222 352.5C226.694 352.5 230.5 356.306 230.5 361Z" stroke="#660066" stroke-width="5"/>
<path d="M56.5 429C56.5 433.142 53.1421 436.5 49 436.5C44.8579 436.5 41.5 433.142 41.5 429C41.5 424.858 44.8579 421.5 49 421.5C53.1421 421.5 56.5 424.858 56.5 429Z" stroke="#660066" stroke-width="3"/>
<path d="M1376.5 184C1376.5 179.858 1379.86 176.5 1384 176.5C1388.14 176.5 1391.5 179.858 1391.5 184C1391.5 188.142 1388.14 191.5 1384 191.5C1379.86 191.5 1376.5 188.142 1376.5 184Z" stroke="#660066" stroke-width="3"/>
<path d="M193 166.291L224.759 128H273L244.5 166.291L273 207H224.759L193 166.291Z" fill="#660066"/>
<path d="M258 166.291L289.759 128H338L314.683 166.291L338 207H289.759L258 166.291Z" fill="#660066"/>
<path d="M327 166.291L358.759 128H407L383.683 166.291L407 207H358.759L327 166.291Z" fill="#660066"/>
<path d="M1265 525.709L1233.24 564L1185 564L1213 525.709L1185 485L1233.24 485L1265 525.709Z" fill="#660066"/>
<path d="M1200 525.709L1168.24 564L1120 564L1143.32 525.709L1120 485L1168.24 485L1200 525.709Z" fill="#660066"/>
<path d="M1131 525.709L1099.24 564L1051 564L1074.32 525.709L1051 485L1099.24 485L1131 525.709Z" fill="#660066"/>
<path d="M432 389H139L55 426.5" stroke="#660066" stroke-width="3"/>
<path d="M1001 224L1294 224L1378 186.5" stroke="#660066" stroke-width="3"/>
<path d="M897.272 500.5C921.905 500.5 920.01 500.5 948.059 500.5C976.108 500.5 974.517 500.5 998.846 500.5C998.846 528.574 976.108 551.333 948.059 551.333C920.01 551.333 897.272 528.574 897.272 500.5Z" fill="#660066"/>
<path d="M952.43 568L955.969 544.875L939.734 544.875L942.856 568L952.43 568Z" fill="#660066" stroke="#660066" stroke-width="8"/>
<path d="M906.324 556.329L925.163 542.481L913.683 530.991L899.553 549.553L906.324 556.329Z" fill="#660066" stroke="#660066" stroke-width="8"/>
<path d="M887.361 522.496L910.593 519.931L906.391 504.235L884.882 513.239L887.361 522.496Z" fill="#660066" stroke="#660066" stroke-width="8"/>
<path d="M1011.75 514.021L991.374 502.568L985.661 517.779L1008.39 522.992L1011.75 514.021Z" fill="#660066" stroke="#660066" stroke-width="8"/>
<path d="M995.928 547.764L982.093 528.908L970.613 540.398L989.158 554.54L995.928 547.764Z" fill="#660066" stroke="#660066" stroke-width="8"/>
<path d="M998.728 500.5C974.095 500.5 975.99 500.5 947.941 500.5C919.892 500.5 921.483 500.5 897.154 500.5C897.154 472.426 919.892 449.667 947.941 449.667C975.99 449.667 998.728 472.426 998.728 500.5Z" fill="#660066"/>
<path d="M943.57 433L940.031 456.125H956.266L953.144 433H943.57Z" fill="#660066" stroke="#660066" stroke-width="8"/>
<path d="M989.676 444.671L970.837 458.519L982.317 470.009L996.447 451.447L989.676 444.671Z" fill="#660066" stroke="#660066" stroke-width="8"/>
<path d="M1008.64 478.504L985.407 481.069L989.609 496.765L1011.12 487.761L1008.64 478.504Z" fill="#660066" stroke="#660066" stroke-width="8"/>
<path d="M884.245 486.979L904.626 498.432L910.339 483.221L887.615 478.008L884.245 486.979Z" fill="#660066" stroke="#660066" stroke-width="8"/>
<path d="M900.072 453.236L913.907 472.092L925.387 460.602L906.842 446.46L900.072 453.236Z" fill="#660066" stroke="#660066" stroke-width="8"/>
<ellipse cx="948.537" cy="502.643" rx="31.157" ry="31.0714" fill="#EFBBFF"/>
<path d="M444.272 115.5C468.905 115.5 467.01 115.5 495.059 115.5C523.108 115.5 521.517 115.5 545.846 115.5C545.846 143.574 523.108 166.333 495.059 166.333C467.01 166.333 444.272 143.574 444.272 115.5Z" fill="#660066"/>
<path d="M499.43 183L502.969 159.875L486.734 159.875L489.856 183L499.43 183Z" fill="#660066" stroke="#660066" stroke-width="8"/>
<path d="M453.324 171.329L472.163 157.481L460.683 145.991L446.553 164.553L453.324 171.329Z" fill="#660066" stroke="#660066" stroke-width="8"/>
<path d="M434.361 137.496L457.593 134.931L453.391 119.235L431.882 128.239L434.361 137.496Z" fill="#660066" stroke="#660066" stroke-width="8"/>
<path d="M558.755 129.021L538.374 117.568L532.661 132.779L555.385 137.992L558.755 129.021Z" fill="#660066" stroke="#660066" stroke-width="8"/>
<path d="M542.928 162.764L529.093 143.908L517.613 155.398L536.158 169.54L542.928 162.764Z" fill="#660066" stroke="#660066" stroke-width="8"/>
<path d="M545.728 115.5C521.095 115.5 522.99 115.5 494.941 115.5C466.892 115.5 468.483 115.5 444.154 115.5C444.154 87.4255 466.892 64.6667 494.941 64.6667C522.99 64.6667 545.728 87.4255 545.728 115.5Z" fill="#660066"/>
<path d="M490.57 48L487.031 71.125H503.266L500.144 48H490.57Z" fill="#660066" stroke="#660066" stroke-width="8"/>
<path d="M536.676 59.671L517.837 73.5185L529.317 85.009L543.447 66.4474L536.676 59.671Z" fill="#660066" stroke="#660066" stroke-width="8"/>
<path d="M555.639 93.5043L532.407 96.0685L536.609 111.765L558.118 102.761L555.639 93.5043Z" fill="#660066" stroke="#660066" stroke-width="8"/>
<path d="M431.245 101.979L451.626 113.432L457.339 98.2211L434.615 93.0083L431.245 101.979Z" fill="#660066" stroke="#660066" stroke-width="8"/>
<path d="M447.072 68.2361L460.907 87.0923L472.387 75.6018L453.842 61.4597L447.072 68.2361Z" fill="#660066" stroke="#660066" stroke-width="8"/>
<ellipse cx="495.537" cy="117.643" rx="31.157" ry="31.0714" fill="#EFBBFF"/>
<g filter="url(#filter0_d_424_967)">
<circle cx="717.5" cy="314.5" r="295.5" fill="#800080"/>
</g>
<circle cx="717.5" cy="305.5" r="244.5" stroke="#BE29EC" stroke-opacity="0.44" stroke-width="8"/>
<circle cx="722.5" cy="308.5" r="208.5" stroke="#BE29EC" stroke-width="8"/>
<path d="M788.502 354.93L718.092 313.202L646.487 354.83L719.287 397.256L788.502 354.93Z" fill="#8855C4"/>
<path d="M788.503 354.93L717.994 313.301V230.443L788.503 270.23V354.93Z" fill="#2B0D4F"/>
<path d="M717.993 313.302V230.443L646.487 269.35V354.831L717.993 313.302Z" fill="#4B207A"/>
<path d="M827.94 251.656C827.974 238.642 828.02 212.417 827.94 211.62L862 229.945V270.578L827.94 251.656Z" fill="#4B207A"/>
<path d="M826.745 372.358L826.546 333.319L861.601 354.034L826.745 372.358Z" fill="#2B0D4F"/>
<path d="M756.235 291.89L753.646 168L800.055 192.101V266.793L861.601 303.442V354.034L756.235 291.89Z" fill="#6F389F"/>
<path d="M754.542 208.433L753.646 168L719.786 188.018L754.542 208.433Z" fill="#2B0D4F"/>
<path d="M575.779 273.964V233.132L611.432 213.389V253.249L575.779 273.964Z" fill="#4B207A"/>
<path d="M610.138 373.952L575.381 354.034L610.138 334.614V373.952Z" fill="#2B0D4F"/>
<path d="M683.535 207.836L683.336 168L717.993 188.018L683.535 207.836Z" fill="#2B0D4F"/>
<path d="M683.934 293.483L575.381 354.034L575 302.048L637.126 265.598V194.292L683.336 168L683.934 293.483Z" fill="#683B9B"/>
<path d="M718.491 438.287L684.531 458.205L717.595 478.919L752.252 458.205L718.491 438.287Z" fill="#4B207A"/>
<path d="M825.948 373.952L826.745 414.584L792.287 395.264L825.948 373.952Z" fill="#2B0D4F"/>
<path d="M610.237 415.381L611.034 375.744L645.691 395.364L610.237 415.381Z" fill="#2B0D4F"/>
<path d="M657.642 442.693L718.89 406.418L780.946 442.868L826.745 414.584L718.89 354.034L610.237 415.381L657.642 442.693Z" fill="#6F389F"/>
<defs>
<filter id="filter0_d_424_967" x="403" y="0" width="629" height="629" filterUnits="userSpaceOnUse" color-interpolation-filters="sRGB">
<feFlood flood-opacity="0" result="BackgroundImageFix"/>
<feColorMatrix in="SourceAlpha" type="matrix" values="0 0 0 0 0 0 0 0 0 0 0 0 0 0 0 0 0 0 127 0" result="hardAlpha"/>
<feMorphology radius="15" operator="dilate" in="SourceAlpha" result="effect1_dropShadow_424_967"/>
<feOffset/>
<feGaussianBlur stdDeviation="2"/>
<feComposite in2="hardAlpha" operator="out"/>
<feColorMatrix type="matrix" values="0 0 0 0 0 0 0 0 0 0 0 0 0 0 0 0 0 0 0.25 0"/>
<feBlend mode="normal" in2="BackgroundImageFix" result="effect1_dropShadow_424_967"/>
<feBlend mode="normal" in="SourceGraphic" in2="effect1_dropShadow_424_967" result="shape"/>
</filter>
</defs>
</svg>
