<svg width="878" height="952" viewBox="0 0 878 952" fill="none" xmlns="http://www.w3.org/2000/svg">
<g opacity="0.4">
<path d="M653.155 571.863L437.754 444.207L218.698 571.558L441.41 701.347L653.155 571.863Z" fill="#8855C4"/>
<path d="M653.155 571.863L437.45 444.511V191.027L653.155 312.747V571.863Z" fill="#2B0D4F"/>
<path d="M437.45 444.511V191.027L218.698 310.053V571.558L437.45 444.511Z" fill="#4B207A"/>
<path d="M773.803 255.922C773.905 216.112 774.047 135.883 773.803 133.445L878 189.504V313.809L773.803 255.922Z" fill="#4B207A"/>
<path d="M770.147 625.179L769.538 505.75L876.781 569.121L770.147 625.179Z" fill="#2B0D4F"/>
<path d="M554.442 379.007L546.521 0L688.496 73.7297V302.231L876.781 414.349V569.12L554.442 379.007Z" fill="#6F389F"/>
<path d="M549.262 123.695L546.52 0L442.933 61.2383L549.262 123.695Z" fill="#2B0D4F"/>
<path d="M2.38281 324.167V199.253L111.454 138.855V260.796L2.38281 324.167Z" fill="#4B207A"/>
<path d="M107.494 630.054L1.16455 569.12L107.494 509.71V630.054Z" fill="#2B0D4F"/>
<path d="M332.035 121.867L331.425 0L437.45 61.2383L332.035 121.867Z" fill="#2B0D4F"/>
<path d="M333.253 383.882L1.16463 569.12L0 410.083L190.059 298.575V80.4324L331.425 0L333.253 383.882Z" fill="#683B9B"/>
<path d="M438.973 826.87L335.082 887.804L436.231 951.175L542.256 887.804L438.973 826.87Z" fill="#4B207A"/>
<path d="M767.71 630.054L770.147 754.359L664.732 695.253L767.71 630.054Z" fill="#2B0D4F"/>
<path d="M107.799 756.797L110.237 635.539L216.261 695.558L107.799 756.797Z" fill="#2B0D4F"/>
<path d="M252.821 840.349L440.192 729.377L630.036 840.885L770.148 754.359L440.192 569.121L107.799 756.797L252.821 840.349Z" fill="#6F389F"/>
</g>
</svg>
